<svg width="32" height="32" viewBox="0 0 32 32" fill="none" xmlns="http://www.w3.org/2000/svg">
  <!-- Background circle with blue gradient -->
  <circle cx="16" cy="16" r="16" fill="url(#blueGradient)"/>
  
  <!-- Music note in white -->
  <path d="M12 22c0 1.1.9 2 2 2s2-.9 2-2-.9-2-2-2-2 .9-2 2z" fill="#FFFFFF"/>
  <path d="M20 20c0 1.1.9 2 2 2s2-.9 2-2-.9-2-2-2-2 .9-2 2z" fill="#FFFFFF"/>
  <rect x="14" y="8" width="2" height="14" fill="#FFFFFF"/>
  <rect x="22" y="6" width="2" height="14" fill="#FFFFFF"/>
  <path d="M16 8c0-1.1.9-2 2-2h6c1.1 0 2 .9 2 2s-.9 2-2 2h-6c-1.1 0-2-.9-2-2z" fill="#FFFFFF"/>
  
  <!-- Musical notes decorations in different blues -->
  <circle cx="8" cy="10" r="1.5" fill="#87CEEB"/>
  <circle cx="26" cy="24" r="1" fill="#4682B4"/>
  <circle cx="6" cy="26" r="1" fill="#1E90FF"/>
  
  <!-- Blue gradient definition -->
  <defs>
    <linearGradient id="blueGradient" x1="0%" y1="0%" x2="100%" y2="100%">
      <stop offset="0%" style="stop-color:#1E3A8A;stop-opacity:1" />
      <stop offset="50%" style="stop-color:#3B82F6;stop-opacity:1" />
      <stop offset="100%" style="stop-color:#60A5FA;stop-opacity:1" />
    </linearGradient>
  </defs>
</svg> 